<svg width="221" height="383" viewBox="0 0 221 383" fill="none" xmlns="http://www.w3.org/2000/svg">
<path d="M0.5 230.574V90.5736C0.5 90.5736 21.3765 50.7407 43 33.0736C64.6235 15.4066 97.7756 3.10196 120.5 1.07364C143.224 -0.954682 162.92 2.24306 183 13.0737C203.376 24.0638 209.779 34.1795 216.5 53.5736C223.221 72.9678 219.166 91.7969 211.5 114.074C203.834 136.35 178.5 170.574 178.5 170.574L155.5 134.074C155.5 134.074 176.585 112.82 178.5 102.074C180.415 91.3274 182.896 81.7747 178.5 73.5737C174.104 65.3727 167.683 58.8887 155.5 51.0737C143.317 43.2587 125.749 46.6556 111 49.5737C96.2507 52.4918 63.8069 73.667 58 82.0737C52.1931 90.4804 43 114.074 43 114.074V206.074L0.5 230.574Z" fill="#D9D9D9"/>
<path d="M178.933 205.824L179.184 206.258L178.749 206.507L43.5 284.362V319.709L179 241.709V284.37L0 382.418V264.298L0.233398 264.151L138.036 177.275L142.702 143.057L178.933 205.824ZM138.995 177.641L138.964 177.873L138.767 177.997L1 264.849V380.729L178 283.777V243.437L42.5 321.438V283.785L177.816 205.889L143.297 146.089L138.995 177.641ZM120.455 0.575891C143.263 -1.45986 163.059 1.75002 183.237 12.6335C193.463 18.1489 200.219 23.4655 205.263 29.863C210.303 36.2562 213.606 43.6963 216.973 53.4099C223.752 72.9733 219.644 91.9427 211.973 114.236C208.118 125.436 199.839 139.606 192.546 150.948C188.896 156.625 185.485 161.605 182.987 165.166C181.739 166.946 180.718 168.371 180.009 169.352C179.654 169.843 179.377 170.222 179.189 170.479C179.096 170.608 179.024 170.705 178.976 170.771C178.952 170.804 178.933 170.829 178.921 170.845C178.915 170.854 178.909 170.861 178.906 170.865C178.905 170.867 178.904 170.869 178.903 170.87L178.902 170.871L178.467 171.459L154.865 134.004L155.146 133.721C155.146 133.721 155.147 133.719 155.148 133.717C155.151 133.715 155.155 133.712 155.16 133.707C155.17 133.697 155.185 133.682 155.204 133.662C155.244 133.622 155.303 133.562 155.38 133.483C155.534 133.326 155.761 133.093 156.05 132.793C156.628 132.193 157.457 131.322 158.458 130.245C160.46 128.089 163.149 125.104 165.896 121.785C168.645 118.465 171.447 114.818 173.678 111.338C175.917 107.844 177.547 104.57 178.008 101.986C178.97 96.5854 180.059 91.5565 180.367 86.8366C180.674 82.1323 180.197 77.7982 178.06 73.8103C173.717 65.7102 167.371 59.2826 155.23 51.4948C149.259 47.6646 141.938 46.5629 134.228 46.7985C126.517 47.0342 118.478 48.6038 111.097 50.0642C107.473 50.7812 102.726 52.6291 97.5312 55.1501C92.3444 57.6675 86.7404 60.842 81.4121 64.1892C76.0839 67.5363 71.0381 71.0526 66.9658 74.2526C62.8788 77.4643 59.816 80.3242 58.4111 82.3581C55.5399 86.5149 51.8085 94.4693 48.7812 101.425C47.2712 104.895 45.9418 108.103 44.9902 110.444C44.5145 111.614 44.1334 112.568 43.8711 113.228C43.74 113.558 43.6389 113.816 43.5703 113.99C43.5409 114.065 43.5171 114.124 43.5 114.168V206.363L43.25 206.507L0 231.439V90.4509L0.0576172 90.3415L0.5 90.5739C0.0571372 90.3418 0.0574304 90.3419 0.0576172 90.3415L0.0585938 90.3396C0.0592652 90.3383 0.0602527 90.3361 0.0615234 90.3337C0.0641171 90.3288 0.0682445 90.3217 0.0732422 90.3122C0.0834729 90.2928 0.0980379 90.2633 0.118164 90.2253C0.158632 90.1488 0.219416 90.0351 0.298828 89.8864C0.457665 89.5891 0.692732 89.1508 1 88.5876C1.61452 87.4613 2.51672 85.8332 3.66602 83.8249C5.96458 79.8084 9.25438 74.2684 13.2217 68.1755C21.1483 56.0019 31.8085 41.5715 42.6836 32.6862C64.3878 14.9533 97.6353 2.61285 120.455 0.575891ZM182.763 13.5134C162.781 2.73576 143.186 -0.448818 120.545 1.57199C97.9159 3.59179 64.8591 15.8596 43.3164 33.4607C32.5681 42.2423 21.978 56.5619 14.0605 68.7214C10.106 74.7948 6.82567 80.3178 4.53418 84.322C3.38851 86.3239 2.48955 87.9461 1.87793 89.0671C1.57228 89.6273 1.33818 90.0623 1.18066 90.3571C1.1019 90.5046 1.04278 90.6178 1.00293 90.6931C1.00203 90.6948 1.00088 90.6963 1 90.698V229.708L42.5 205.784V113.979L42.5342 113.892C42.5345 113.892 42.5356 113.889 42.5361 113.887L42.5605 113.824C42.5782 113.779 42.6052 113.711 42.6396 113.624C42.7086 113.448 42.8099 113.19 42.9414 112.859C43.2046 112.196 43.5876 111.24 44.0645 110.067C45.0181 107.721 46.3503 104.506 47.8643 101.027C50.8852 94.0852 54.6532 86.0397 57.5889 81.7898C59.0874 79.6204 62.2575 76.6807 66.3477 73.4665C70.4526 70.2408 75.5287 66.7047 80.8809 63.3425C86.233 59.9803 91.8686 56.7871 97.0947 54.2507C102.313 51.7181 107.152 49.8248 110.903 49.0827C118.271 47.625 126.391 46.0371 134.197 45.7985C142.004 45.56 149.558 46.6684 155.77 50.653C167.995 58.4951 174.49 65.0358 178.94 73.3376C181.199 77.5506 181.679 82.0934 181.365 86.9021C181.053 91.6951 179.944 96.8156 178.992 102.161C178.495 104.95 176.772 108.363 174.52 111.877C172.258 115.404 169.429 119.086 166.667 122.423C163.904 125.76 161.201 128.76 159.19 130.926C158.185 132.008 157.352 132.882 156.77 133.486C156.502 133.764 156.287 133.984 156.133 134.141L178.53 169.684C178.704 169.446 178.929 169.139 179.198 168.766C179.905 167.789 180.923 166.367 182.169 164.592C184.661 161.039 188.064 156.07 191.705 150.407C198.996 139.068 207.216 124.987 211.027 113.911C218.687 91.6509 222.69 72.9618 216.027 53.737C212.673 44.0567 209.413 36.7428 204.478 30.4821C199.545 24.2257 192.913 18.9881 182.763 13.5134Z" fill="white"/>
</svg>
